<svg width="2105" height="2016" viewBox="0 0 2105 2016" fill="none" xmlns="http://www.w3.org/2000/svg">
<path d="M918.91 20.3875C868.969 29.1948 823.32 62.3526 804.42 115.904L657.186 533.07C642.831 573.741 611.52 606.123 571.327 621.871L159.044 783.395C53.2498 824.843 32.7918 970.356 122.981 1039.24L474.644 1307.81C491.576 1320.73 505.522 1337.15 515.528 1355.96C525.534 1374.76 531.366 1395.5 532.625 1416.76L558.835 1858.23C565.559 1971.49 697.668 2035.92 791.287 1971.44L791.289 1971.43L1155.87 1720.26L1155.87 1720.25C1173.42 1708.15 1193.38 1699.97 1214.37 1696.27C1235.37 1692.57 1256.92 1693.43 1277.55 1698.8L1277.55 1698.8L1706.04 1810.11C1816.06 1838.7 1918.17 1732.96 1885.75 1624.22L1885.75 1624.23L1759.42 1200.41L1759.42 1200.41C1753.33 1180 1751.72 1158.52 1754.69 1137.42C1757.66 1116.33 1765.15 1096.13 1776.65 1078.2L1776.65 1078.19L2015.25 705.513L2015.24 705.511C2076.44 609.933 2007.46 480.197 1893.87 477.434L1451.21 466.681C1408.06 465.633 1367.56 445.914 1340.17 412.608L1059.15 70.9554C1023.08 27.1014 968.841 11.5585 918.896 20.3665M932.34 96.6134C955.035 92.6111 979.819 100.451 997.365 121.779L1278.38 463.422C1320.52 514.663 1382.95 545.042 1449.26 546.655L1891.92 557.408C1947.35 558.754 1977.63 615.896 1947.86 662.382L1709.27 1035.06C1673.48 1090.93 1663.8 1159.69 1682.74 1223.26L1809.08 1647.07C1824.81 1699.85 1779.83 1746.62 1726.15 1732.68L1726.15 1732.68L1297.66 1621.36C1233.45 1604.67 1165.09 1616.73 1110.46 1654.38L745.884 1905.55C700.205 1937.02 641.945 1908.45 638.676 1853.48L612.469 1412.01C608.537 1345.78 575.914 1284.5 523.186 1244.22L171.524 975.65C127.662 942.151 136.58 878.1 188.203 857.867L600.485 696.341C662.256 672.139 710.525 622.24 732.608 559.671L732.608 559.669L879.842 142.504C889.034 116.463 909.64 100.618 932.335 96.6154" fill="#151515"/>
</svg>
