<svg width="2105" height="2016" viewBox="0 0 2105 2016" fill="none" xmlns="http://www.w3.org/2000/svg">
<path d="M842.026 129.177C870.114 49.5833 974.531 31.1719 1028.15 96.3575L1309.17 438.02C1343.94 480.296 1395.4 505.347 1450.14 506.68L1892.78 517.45C1977.29 519.505 2026.92 612.947 1981.45 683.983L1742.87 1056.65C1728.28 1079.43 1718.77 1105.09 1715 1131.88C1711.22 1158.66 1713.27 1185.95 1721 1211.87L1847.34 1635.7C1871.42 1716.45 1797.88 1792.71 1716.03 1771.44L1287.55 1660.11C1261.36 1653.3 1234.01 1652.21 1207.36 1656.91C1180.72 1661.6 1155.39 1671.98 1133.11 1687.34L768.557 1938.51C698.913 1986.48 603.729 1939.98 598.726 1855.86L572.502 1414.38C569.257 1359.74 542.373 1309.24 498.866 1276.01L147.203 1007.41C80.1767 956.216 94.8588 851.43 173.566 820.594L585.833 659.08C636.813 639.107 676.599 597.967 694.813 546.348L842.026 129.177Z" fill="#FFAFF3"/>
</svg>
